<svg xmlns="http://www.w3.org/2000/svg" width="256" height="256" viewBox="0 0 256 256" role="img" aria-labelledby="title">
  <title>VectraDex</title>
  <defs>
    <linearGradient id="g" x1="0%" y1="0%" x2="100%" y2="0%">
      <stop offset="0%" stop-color="#22d3ee"/>
      <stop offset="50%" stop-color="#3b82f6"/>
      <stop offset="100%" stop-color="#8b5cf6"/>
    </linearGradient>
    <filter id="glow" x="-20%" y="-20%" width="140%" height="140%">
      <feGaussianBlur stdDeviation="3" result="b"/>
      <feMerge>
        <feMergeNode in="b"/>
        <feMergeNode in="SourceGraphic"/>
      </feMerge>
    </filter>
  </defs>
  <rect width="256" height="256" rx="28" fill="#0b1020"/>
  <!-- eye-like network -->
  <path d="M24 128c32-48 80-72 104-72s72 24 104 72c-32 48-80 72-104 72S56 176 24 128z" fill="none" stroke="url(#g)" stroke-width="6" filter="url(#glow)"/>
  <g fill="none" stroke="url(#g)" opacity=".55">
    <path d="M60 96l28 18m-6 48l-46-34m178 0l-46 34m-6-48l28-18"/>
    <path d="M44 128h168"/>
  </g>
  <!-- V mark -->
  <path d="M128 84l-30 80h18l12-36 12 36h18l-30-80z" fill="url(#g)"/>
</svg>


